.
..............................Site Info...........................

 -   http://www.scenetime.com  *_*   

SceneTime is going to Close sign up on march/1, hurry up! get in before the doors are closed.

     We care to share . Join us on  http://www.scenetime.com 

    Be the first to get new release at  http://www.scenetime.com

        Seed back for speed


...................................NFO:.................................................








































          
          
              
              
                    
                    
                    
                    
Hook.1991.DVDRiP.AC3-5.1.XviD-SiC

Poster:
[img]http://img820.imageshack.us/img820/2936/hookq.png[/img]

IMDB Link: 
http://www.imdb.com/title/tt0102057

Description:
The boy who wasn't supposed to grow up -- Peter Pan -- did just that, becoming a soulless corporate lawyer whose workaholism could cost him his wife and kids, in this family-oriented fantasy from director Steven Spielberg. But a trip to see Granny Wendy in London, where the vengeful Capt. Hook kidnaps Peter's kids and forces Peter to return to Neverland, could lead to a chance at redemption.

Action | Adventure | Comedy | Drama | Family | Fantasy

General:
Complete name                            : Hook.1991.DVDRiP.AC3-5.1.XviD-SiC.avi
Format                                   : AVI
Format/Info                              : Audio Video Interleave
File size                                : 2.00 GiB
Duration                                 : 2h 21mn
Overall bit rate                         : 2 019 Kbps

Video
ID                                       : 0
Format                                   : MPEG-4 Visual
Format profile                           : Advanced Simple@L5
Format settings, BVOP                    : 3
Format settings, QPel                    : No
Format settings, GMC                     : No warppoints
Format settings, Matrix                  : Default (H.263)
Codec ID                                 : XVID
Codec ID/Hint                            : XviD
Duration                                 : 2h 21mn
Bit rate                                 : 1 626 Kbps
Width                                    : 720 pixels
Height                                   : 304 pixels
Display aspect ratio                     : 2.35:1
Frame rate                               : 23.976 fps
Color space                              : YUV
Chroma subsampling                       : 4:2:0
Bit depth                                : 8 bits
Scan type                                : Progressive
Compression mode                         : Lossy
Bits/(Pixel*Frame)                       : 0.310
Stream size                              : 1.61 GiB (81%)
Writing library                          : XviD 1.2.1 (UTC 2008-12-04)

Audio
ID                                       : 1
Format                                   : AC-3
Format/Info                              : Audio Coding 3
Mode extension                           : CM (complete main)
Codec ID                                 : 2000
Duration                                 : 2h 21mn
Bit rate mode                            : Constant
Bit rate                                 : 384 Kbps
Channel(s)                               : 6 channels
Channel positions                        : Front: L C R, Side: L R, LFE
Sampling rate                            : 48.0 KHz
Bit depth                                : 16 bits
Compression mode                         : Lossy
Stream size                              : 389 MiB (19%)
Alignment                                : Split accross interleaves
Interleave, duration                     : 42 ms (1.00 video frame)
Interleave, preload duration             : 500 ms

Screenshots:
[IMG]http://img829.imageshack.us/img829/4681/vlcsnap2012022200h21m17.png[/IMG]
[IMG]http://img31.imageshack.us/img31/9278/vlcsnap2012022200h22m01.png[/IMG]
[IMG]http://img580.imageshack.us/img580/9118/vlcsnap2012022200h22m31.png[/IMG]
[IMG]http://img851.imageshack.us/img851/8832/vlcsnap2012022200h23m30.png[/IMG]
[IMG]http://img856.imageshack.us/img856/6690/vlcsnap2012022200h23m40.png[/IMG]
[IMG]http://img28.imageshack.us/img28/926/vlcsnap2012022200h23m48.png[/IMG]

Note:  Normal Stuff done, turned out nice :)  A great classic for the kiddies :)

Source:  Ours

Enjoy!

Respects to T00NG0D, ELEKTRI4KA, PA, YeFsTe, MrRep and everyone in the struggle...